<mxfile host="app.diagrams.net" agent="Mozilla/5.0 (X11; Linux x86_64; rv:142.0) Gecko/20100101 Firefox/142.0" version="28.2.4">
  <diagram name="Page-1" id="At5ZbgD8nu1vzKOYgQm3">
    <mxGraphModel dx="1959" dy="1011" grid="1" gridSize="10" guides="1" tooltips="1" connect="1" arrows="1" fold="1" page="1" pageScale="1" pageWidth="850" pageHeight="1100" math="0" shadow="0">
      <root>
        <mxCell id="0" />
        <mxCell id="1" parent="0" />
        <mxCell id="M3tCwTuir3CWKcTllsGL-5" value="Client" style="swimlane;fontStyle=1;align=center;verticalAlign=top;childLayout=stackLayout;horizontal=1;startSize=26;horizontalStack=0;resizeParent=1;resizeParentMax=0;resizeLast=0;collapsible=1;marginBottom=0;whiteSpace=wrap;html=1;" vertex="1" parent="1">
          <mxGeometry x="60" y="70" width="180" height="148" as="geometry">
            <mxRectangle x="20" y="180" width="80" height="30" as="alternateBounds" />
          </mxGeometry>
        </mxCell>
        <mxCell id="M3tCwTuir3CWKcTllsGL-6" value="&lt;div&gt;clientID&lt;/div&gt;&lt;div&gt;name&lt;/div&gt;&lt;div&gt;vector&amp;lt;orderID&amp;gt;&lt;/div&gt;&lt;div&gt;&lt;br&gt;&lt;/div&gt;&lt;div&gt;only when placing an order:&lt;/div&gt;&lt;div&gt;completionTime&lt;/div&gt;&lt;div&gt;ServiceType&lt;/div&gt;&lt;div&gt;&lt;br&gt;&lt;/div&gt;" style="text;strokeColor=none;fillColor=none;align=left;verticalAlign=top;spacingLeft=4;spacingRight=4;overflow=hidden;rotatable=0;points=[[0,0.5],[1,0.5]];portConstraint=eastwest;whiteSpace=wrap;html=1;" vertex="1" parent="M3tCwTuir3CWKcTllsGL-5">
          <mxGeometry y="26" width="180" height="114" as="geometry" />
        </mxCell>
        <mxCell id="M3tCwTuir3CWKcTllsGL-7" value="" style="line;strokeWidth=1;fillColor=none;align=left;verticalAlign=middle;spacingTop=-1;spacingLeft=3;spacingRight=3;rotatable=0;labelPosition=right;points=[];portConstraint=eastwest;strokeColor=inherit;" vertex="1" parent="M3tCwTuir3CWKcTllsGL-5">
          <mxGeometry y="140" width="180" height="8" as="geometry" />
        </mxCell>
        <mxCell id="M3tCwTuir3CWKcTllsGL-24" style="edgeStyle=orthogonalEdgeStyle;rounded=0;orthogonalLoop=1;jettySize=auto;html=1;exitX=0.75;exitY=1;exitDx=0;exitDy=0;entryX=1;entryY=0.5;entryDx=0;entryDy=0;" edge="1" parent="1" source="M3tCwTuir3CWKcTllsGL-9" target="M3tCwTuir3CWKcTllsGL-12">
          <mxGeometry relative="1" as="geometry" />
        </mxCell>
        <mxCell id="M3tCwTuir3CWKcTllsGL-9" value="Order" style="swimlane;fontStyle=1;align=center;verticalAlign=top;childLayout=stackLayout;horizontal=1;startSize=26;horizontalStack=0;resizeParent=1;resizeParentMax=0;resizeLast=0;collapsible=1;marginBottom=0;whiteSpace=wrap;html=1;" vertex="1" parent="1">
          <mxGeometry x="480" y="100" width="160" height="68" as="geometry">
            <mxRectangle x="20" y="180" width="80" height="30" as="alternateBounds" />
          </mxGeometry>
        </mxCell>
        <mxCell id="M3tCwTuir3CWKcTllsGL-10" value="&lt;div&gt;OrderData&lt;/div&gt;&lt;div&gt;&lt;br&gt;&lt;/div&gt;" style="text;strokeColor=none;fillColor=none;align=left;verticalAlign=top;spacingLeft=4;spacingRight=4;overflow=hidden;rotatable=0;points=[[0,0.5],[1,0.5]];portConstraint=eastwest;whiteSpace=wrap;html=1;" vertex="1" parent="M3tCwTuir3CWKcTllsGL-9">
          <mxGeometry y="26" width="160" height="34" as="geometry" />
        </mxCell>
        <mxCell id="M3tCwTuir3CWKcTllsGL-11" value="" style="line;strokeWidth=1;fillColor=none;align=left;verticalAlign=middle;spacingTop=-1;spacingLeft=3;spacingRight=3;rotatable=0;labelPosition=right;points=[];portConstraint=eastwest;strokeColor=inherit;" vertex="1" parent="M3tCwTuir3CWKcTllsGL-9">
          <mxGeometry y="60" width="160" height="8" as="geometry" />
        </mxCell>
        <mxCell id="M3tCwTuir3CWKcTllsGL-21" style="edgeStyle=orthogonalEdgeStyle;rounded=0;orthogonalLoop=1;jettySize=auto;html=1;exitX=0.25;exitY=0;exitDx=0;exitDy=0;entryX=0.25;entryY=1;entryDx=0;entryDy=0;" edge="1" parent="1" source="M3tCwTuir3CWKcTllsGL-12" target="M3tCwTuir3CWKcTllsGL-5">
          <mxGeometry relative="1" as="geometry">
            <Array as="points">
              <mxPoint x="270" y="300" />
              <mxPoint x="105" y="300" />
            </Array>
          </mxGeometry>
        </mxCell>
        <mxCell id="M3tCwTuir3CWKcTllsGL-23" style="edgeStyle=orthogonalEdgeStyle;rounded=0;orthogonalLoop=1;jettySize=auto;html=1;exitX=0.844;exitY=-0.002;exitDx=0;exitDy=0;exitPerimeter=0;" edge="1" parent="1" source="M3tCwTuir3CWKcTllsGL-12">
          <mxGeometry relative="1" as="geometry">
            <mxPoint x="500" y="168" as="targetPoint" />
            <Array as="points">
              <mxPoint x="365" y="210" />
              <mxPoint x="500" y="210" />
              <mxPoint x="500" y="168" />
            </Array>
          </mxGeometry>
        </mxCell>
        <mxCell id="M3tCwTuir3CWKcTllsGL-25" style="edgeStyle=orthogonalEdgeStyle;rounded=0;orthogonalLoop=1;jettySize=auto;html=1;entryX=0.25;entryY=0;entryDx=0;entryDy=0;exitX=0;exitY=0.5;exitDx=0;exitDy=0;" edge="1" parent="1" source="M3tCwTuir3CWKcTllsGL-12" target="M3tCwTuir3CWKcTllsGL-15">
          <mxGeometry relative="1" as="geometry">
            <mxPoint x="270" y="370" as="sourcePoint" />
            <Array as="points">
              <mxPoint x="210" y="337" />
              <mxPoint x="210" y="460" />
              <mxPoint x="150" y="460" />
            </Array>
          </mxGeometry>
        </mxCell>
        <mxCell id="M3tCwTuir3CWKcTllsGL-30" style="edgeStyle=orthogonalEdgeStyle;rounded=0;orthogonalLoop=1;jettySize=auto;html=1;exitX=0.75;exitY=1;exitDx=0;exitDy=0;entryX=0.5;entryY=0;entryDx=0;entryDy=0;" edge="1" parent="1" source="M3tCwTuir3CWKcTllsGL-12" target="M3tCwTuir3CWKcTllsGL-18">
          <mxGeometry relative="1" as="geometry" />
        </mxCell>
        <mxCell id="M3tCwTuir3CWKcTllsGL-12" value="Receptionist" style="swimlane;fontStyle=1;align=center;verticalAlign=top;childLayout=stackLayout;horizontal=1;startSize=26;horizontalStack=0;resizeParent=1;resizeParentMax=0;resizeLast=0;collapsible=1;marginBottom=0;whiteSpace=wrap;html=1;" vertex="1" parent="1">
          <mxGeometry x="230" y="320" width="160" height="34" as="geometry">
            <mxRectangle x="425" y="180" width="80" height="30" as="alternateBounds" />
          </mxGeometry>
        </mxCell>
        <mxCell id="M3tCwTuir3CWKcTllsGL-14" value="" style="line;strokeWidth=1;fillColor=none;align=left;verticalAlign=middle;spacingTop=-1;spacingLeft=3;spacingRight=3;rotatable=0;labelPosition=right;points=[];portConstraint=eastwest;strokeColor=inherit;" vertex="1" parent="M3tCwTuir3CWKcTllsGL-12">
          <mxGeometry y="26" width="160" height="8" as="geometry" />
        </mxCell>
        <mxCell id="M3tCwTuir3CWKcTllsGL-26" style="edgeStyle=orthogonalEdgeStyle;rounded=0;orthogonalLoop=1;jettySize=auto;html=1;exitX=1;exitY=0.25;exitDx=0;exitDy=0;entryX=0.5;entryY=1;entryDx=0;entryDy=0;" edge="1" parent="1" source="M3tCwTuir3CWKcTllsGL-15">
          <mxGeometry relative="1" as="geometry">
            <mxPoint x="369.9999999999998" y="489.94" as="sourcePoint" />
            <mxPoint x="320" y="353.94" as="targetPoint" />
            <Array as="points">
              <mxPoint x="320" y="533" />
            </Array>
          </mxGeometry>
        </mxCell>
        <mxCell id="M3tCwTuir3CWKcTllsGL-28" style="edgeStyle=orthogonalEdgeStyle;rounded=0;orthogonalLoop=1;jettySize=auto;html=1;exitX=1;exitY=0.75;exitDx=0;exitDy=0;entryX=0;entryY=0.5;entryDx=0;entryDy=0;" edge="1" parent="1" source="M3tCwTuir3CWKcTllsGL-15" target="M3tCwTuir3CWKcTllsGL-18">
          <mxGeometry relative="1" as="geometry" />
        </mxCell>
        <mxCell id="M3tCwTuir3CWKcTllsGL-15" value="Photographer" style="swimlane;fontStyle=1;align=center;verticalAlign=top;childLayout=stackLayout;horizontal=1;startSize=26;horizontalStack=0;resizeParent=1;resizeParentMax=0;resizeLast=0;collapsible=1;marginBottom=0;whiteSpace=wrap;html=1;" vertex="1" parent="1">
          <mxGeometry x="110" y="516" width="160" height="68" as="geometry">
            <mxRectangle x="120" y="291" width="80" height="30" as="alternateBounds" />
          </mxGeometry>
        </mxCell>
        <mxCell id="M3tCwTuir3CWKcTllsGL-16" value="&lt;div&gt;vector&amp;lt;OrderPhotographer&amp;gt;&lt;/div&gt;" style="text;strokeColor=none;fillColor=none;align=left;verticalAlign=top;spacingLeft=4;spacingRight=4;overflow=hidden;rotatable=0;points=[[0,0.5],[1,0.5]];portConstraint=eastwest;whiteSpace=wrap;html=1;" vertex="1" parent="M3tCwTuir3CWKcTllsGL-15">
          <mxGeometry y="26" width="160" height="34" as="geometry" />
        </mxCell>
        <mxCell id="M3tCwTuir3CWKcTllsGL-17" value="" style="line;strokeWidth=1;fillColor=none;align=left;verticalAlign=middle;spacingTop=-1;spacingLeft=3;spacingRight=3;rotatable=0;labelPosition=right;points=[];portConstraint=eastwest;strokeColor=inherit;" vertex="1" parent="M3tCwTuir3CWKcTllsGL-15">
          <mxGeometry y="60" width="160" height="8" as="geometry" />
        </mxCell>
        <mxCell id="M3tCwTuir3CWKcTllsGL-18" value="Administrator" style="swimlane;fontStyle=1;align=center;verticalAlign=top;childLayout=stackLayout;horizontal=1;startSize=26;horizontalStack=0;resizeParent=1;resizeParentMax=0;resizeLast=0;collapsible=1;marginBottom=0;whiteSpace=wrap;html=1;" vertex="1" parent="1">
          <mxGeometry x="620" y="490" width="160" height="34" as="geometry">
            <mxRectangle x="440" y="530" width="80" height="30" as="alternateBounds" />
          </mxGeometry>
        </mxCell>
        <mxCell id="M3tCwTuir3CWKcTllsGL-20" value="" style="line;strokeWidth=1;fillColor=none;align=left;verticalAlign=middle;spacingTop=-1;spacingLeft=3;spacingRight=3;rotatable=0;labelPosition=right;points=[];portConstraint=eastwest;strokeColor=inherit;" vertex="1" parent="M3tCwTuir3CWKcTllsGL-18">
          <mxGeometry y="26" width="160" height="8" as="geometry" />
        </mxCell>
        <mxCell id="M3tCwTuir3CWKcTllsGL-22" style="edgeStyle=orthogonalEdgeStyle;rounded=0;orthogonalLoop=1;jettySize=auto;html=1;exitX=1;exitY=0.5;exitDx=0;exitDy=0;" edge="1" parent="1" source="M3tCwTuir3CWKcTllsGL-6">
          <mxGeometry relative="1" as="geometry">
            <mxPoint x="330" y="320" as="targetPoint" />
            <Array as="points">
              <mxPoint x="330" y="153" />
              <mxPoint x="330" y="320" />
            </Array>
          </mxGeometry>
        </mxCell>
        <mxCell id="M3tCwTuir3CWKcTllsGL-42" value="Give order with price" style="text;html=1;align=center;verticalAlign=middle;whiteSpace=wrap;rounded=0;" vertex="1" parent="1">
          <mxGeometry x="110" y="270" width="140" height="30" as="geometry" />
        </mxCell>
        <mxCell id="M3tCwTuir3CWKcTllsGL-43" value="Place order/collect payment" style="text;html=1;align=center;verticalAlign=middle;whiteSpace=wrap;rounded=0;" vertex="1" parent="1">
          <mxGeometry x="240" y="119" width="100" height="30" as="geometry" />
        </mxCell>
        <mxCell id="M3tCwTuir3CWKcTllsGL-44" value="Return orders for Client and Photographer" style="text;html=1;align=center;verticalAlign=middle;whiteSpace=wrap;rounded=0;" vertex="1" parent="1">
          <mxGeometry x="425" y="300" width="140" height="30" as="geometry" />
        </mxCell>
        <mxCell id="M3tCwTuir3CWKcTllsGL-45" value="Create order" style="text;html=1;align=center;verticalAlign=middle;whiteSpace=wrap;rounded=0;" vertex="1" parent="1">
          <mxGeometry x="360" y="180" width="140" height="30" as="geometry" />
        </mxCell>
        <mxCell id="M3tCwTuir3CWKcTllsGL-47" value="Send daily income report" style="text;html=1;align=center;verticalAlign=middle;whiteSpace=wrap;rounded=0;" vertex="1" parent="1">
          <mxGeometry x="380" y="390" width="230" height="30" as="geometry" />
        </mxCell>
        <mxCell id="M3tCwTuir3CWKcTllsGL-48" value="Send used resources report" style="text;html=1;align=center;verticalAlign=middle;whiteSpace=wrap;rounded=0;" vertex="1" parent="1">
          <mxGeometry x="390" y="470" width="230" height="30" as="geometry" />
        </mxCell>
        <mxCell id="M3tCwTuir3CWKcTllsGL-49" value="Forward order" style="text;html=1;align=center;verticalAlign=middle;whiteSpace=wrap;rounded=0;" vertex="1" parent="1">
          <mxGeometry x="40" y="420" width="230" height="30" as="geometry" />
        </mxCell>
        <mxCell id="M3tCwTuir3CWKcTllsGL-51" value="Report completed order" style="text;html=1;align=center;verticalAlign=middle;whiteSpace=wrap;rounded=0;" vertex="1" parent="1">
          <mxGeometry x="200" y="470" width="130" height="40" as="geometry" />
        </mxCell>
      </root>
    </mxGraphModel>
  </diagram>
</mxfile>
